# xmcd
#
# Track frame offsets:
#	150
#	9272
#	19096
#	29650
#	38248
#	45345
#	56246
#	63957
#	73381
#	82836
#
# Disc length: 1208 seconds
#
# Revision: 0
# Processed by: cddbd v1.5.1PL0 Copyright (c) Steve Scherf et al.
# Submitted via: dBpowerAMP V4.0
#
DISCID=7d04b60a
DTITLE=Merle Haggard and The Strangers - Introducing My Friends The Strangers
DYEAR=1970
DGENRE=Country
TTITLE0=Stealin' Corn
TTITLE1=Mexican Rose
TTITLE2=Repeat Performance
TTITLE3=Biff Bam Boom
TTITLE4=Twinkle, Twinkle Lucky Star
TTITLE5=Street Singer
TTITLE6=Waltzing With A Stranger
TTITLE7=Sing Me A Happy Song
TTITLE8=Blue Rock
TTITLE9=Workin' Man Blues
EXTD=+Sound Man+
EXTT0=
EXTT1=
EXTT2=
EXTT3=
EXTT4=
EXTT5=
EXTT6=
EXTT7=
EXTT8=
EXTT9=
PLAYORDER=
